# xmcd
#
# Track frame offsets:
# 150
# 22561
# 46075
# 60676
# 85184
# 107457
# 126452
# 146207
# 164161
# 194235
# 213280
# 234127
# 254803
# 275029
# 287099
# 304798
#
# Disc length: 4382 seconds
#
#
# Revision: 4
# Processed by: cddbd v1.5.1PL0 Copyright (c) Steve Scherf et al.
# Submitted via: FreeRIP 2.942 
#
DISCID=f1111c10
DTITLE=Tracy Chapman - Collection
DYEAR=2001
DGENRE=Blues
TTITLE0=Fast Car
TTITLE1=Subcity
TTITLE2=Baby Can I Hold You
TTITLE3=The Promise
TTITLE4=I'm Ready
TTITLE5=Crossroads
TTITLE6=Bang Bang Bang
TTITLE7=Telling Stories
TTITLE8=Smoke And Ashes
TTITLE9=Speak The Word
TTITLE10=Wedding Song
TTITLE11=Open Arms
TTITLE12=Give Me One Reason
TTITLE13=Talkin' Bout A Revolution
TTITLE14=She's Got Her Ticket
TTITLE15=All That You Have Is Your Soul
EXTD=
EXTT0=
EXTT1=
EXTT2=
EXTT3=
EXTT4=
EXTT5=
EXTT6=
EXTT7=
EXTT8=
EXTT9=
EXTT10=
EXTT11=
EXTT12=
EXTT13=
EXTT14=
EXTT15=
PLAYORDER=
